<svg width="1461" height="1461" viewBox="0 0 1461 1461" fill="none" xmlns="http://www.w3.org/2000/svg">
<path fill-rule="evenodd" clip-rule="evenodd" d="M730.5 1330C1061.59 1330 1330 1061.59 1330 730.5C1330 399.405 1061.59 131 730.5 131C399.405 131 131 399.405 131 730.5C131 1061.59 399.405 1330 730.5 1330ZM730.5 1461C1133.94 1461 1461 1133.94 1461 730.5C1461 327.056 1133.94 0 730.5 0C327.056 0 0 327.056 0 730.5C0 1133.94 327.056 1461 730.5 1461Z" fill="black"/>
<path d="M934 311.5V422.5C908.081 420.524 889.168 419.354 869.502 419.664C840.901 420.116 809.383 424.397 791.352 446.603C783.767 455.944 785.14 453.871 779.5 464.5C778.467 466.446 776.109 471.639 774.219 475.866C772.413 479.907 771.5 484.285 771.5 488.711V574H904.5V688.5H771.5V1212H628.79V688.5H529V574H628.79V507.557C628.79 472.732 632.857 437.5 647.433 405.872C670.19 356.492 717.5 281.5 934 311.5Z" fill="black"/>
</svg>
